<svg aria-hidden="true" style="position: absolute; width: 0; height: 0; overflow: hidden;" version="1.1" xmlns="http://www.w3.org/2000/svg" xmlns:xlink="http://www.w3.org/1999/xlink">
<defs>
<symbol id="icon-children" viewBox="0 0 24 24">
<title>children</title>
<path d="M17.016 20.016c0.844 0 1.5-0.656 1.5-1.5s-0.656-1.5-1.5-1.5-1.5 0.656-1.5 1.5 0.656 1.5 1.5 1.5zM8.016 20.016c0.844 0 1.5-0.656 1.5-1.5s-0.656-1.5-1.5-1.5-1.5 0.656-1.5 1.5 0.656 1.5 1.5 1.5zM19.313 15.891c0.703 0.656 1.172 1.594 1.172 2.625 0 1.922-1.547 3.469-3.469 3.469-1.781 0-3.234-1.313-3.469-3h-2.109c-0.234 1.688-1.641 3-3.422 3-1.922 0-3.516-1.547-3.516-3.469 0-1.313 0.75-2.484 1.828-3.094-0.234-0.328-2.109-4.406-2.109-4.406h-2.203v-2.016h3.469l0.938 2.016h14.578c0 1.828-0.656 3.516-1.688 4.875zM12.984 2.016c4.406 0 8.016 3.563 8.016 7.969h-8.016v-7.969z"></path>
</symbol>
<symbol id="icon-phone-call" viewBox="0 0 24 24">
<title>phone-call</title>
<path d="M20.4 13.9c-0.9-0.1-1.8-0.3-2.6-0.6-1.1-0.4-2.3-0.1-3.2 0.7l-0.7 0.7c-1.8-1.2-3.4-2.7-4.6-4.6l0.7-0.7c0.8-0.8 1.1-2.1 0.7-3.2-0.3-0.8-0.5-1.7-0.6-2.6-0.2-1.5-1.5-2.6-3-2.6 0 0 0 0 0 0h-3c-0.1 0-0.2 0-0.3 0-0.8 0.1-1.5 0.5-2 1.1s-0.7 1.4-0.7 2.2c0.3 3.2 1.5 6.4 3.2 9.1 1.6 2.5 3.8 4.7 6.3 6.3 2.7 1.8 5.9 2.9 9.1 3.2 0.1 0 0.2 0 0.3 0 0 0 0 0 0 0 0.8 0 1.6-0.3 2.1-0.9s0.9-1.3 0.9-2.1v-3c0-1.5-1.1-2.8-2.6-3zM21 16.9v3c0 0.3-0.1 0.5-0.3 0.7s-0.4 0.3-0.8 0.3c-2.9-0.3-5.7-1.3-8.2-2.9-2.3-1.4-4.2-3.4-5.7-5.7-1.6-2.5-2.6-5.3-2.9-8.2 0-0.3 0.1-0.5 0.2-0.7 0.2-0.2 0.5-0.4 0.8-0.4h3c0 0 0 0 0 0 0.5 0 0.9 0.4 1 0.9 0.1 1 0.4 2.1 0.8 3 0.1 0.4 0 0.8-0.2 1.1l-1.3 1.2c-0.3 0.3-0.4 0.8-0.2 1.2 1.5 2.7 3.7 4.9 6.4 6.4 0.4 0.2 0.9 0.2 1.2-0.2l1.3-1.3c0.3-0.3 0.7-0.4 1.1-0.2 1 0.4 2 0.6 3 0.8 0.4 0.1 0.8 0.5 0.8 1 0 0 0 0 0 0z"></path>
<path d="M15.2 0c-0.5-0.1-1 0.3-1.1 0.9-0.1 0.5 0.3 1 0.9 1.1 3.7 0.4 6.6 3.3 7.1 7.1 0.1 0.5 0.5 0.9 1 0.9 0 0 0.1 0 0.1 0 0.5-0.1 0.9-0.6 0.9-1.1-0.6-4.7-4.3-8.4-8.9-8.9z"></path>
<path d="M18 9.1c0.1 0.5 0.5 0.8 1 0.8 0.1 0 0.1 0 0.2 0 0.5-0.1 0.9-0.6 0.8-1.2-0.5-2.4-2.3-4.3-4.7-4.7-0.5-0.1-1.1 0.2-1.2 0.8s0.2 1.1 0.8 1.2c1.6 0.3 2.8 1.5 3.1 3.1z"></path>
</symbol>
<symbol id="icon-aircraft-take-off" viewBox="0 0 20 20">
<title>aircraft-take-off</title>
<path d="M19.87 6.453c0.119 0.257 0.127 1.29-4.884 3.642l-4.913 2.306c-1.71 0.803-4.191 1.859-5.285 2.151-0.766 0.204-1.497-0.316-1.497-0.316s-2.206-1.975-2.792-2.419c-0.585-0.444-0.535-0.67 0.215-0.91 0.467-0.149 3.13 0.493 4.265 0.78 1.339-0.8 2.562-1.486 3.141-1.798-1.396-1.033-4.008-2.962-4.841-3.55-0.799-0.565 0.010-0.768 0.010-0.768 0.368-0.099 1.162-0.228 1.562-0.144 2.721 0.569 7.263 2.071 7.611 2.186 0.832-0.436 2.128-1.092 2.922-1.465 2.075-0.974 4.327-0.037 4.486 0.305z"></path>
</symbol>
<symbol id="icon-meal" viewBox="0 0 20 20">
<title>meal</title>
<path d="M16.949 7.472c-2.176 2.902-4.095 3.002-7.046 3.152h-0.101c-3.591-0.002-6.138-1.336-6.138-1.832-0.002-0.471 2.298-1.697 5.605-1.819l0.59-1.473c-0.019 0-0.037-0.002-0.057-0.002-4.908 0-7.791 1.562-7.791 3.051v2c0 0.918 0.582 8.949 7.582 8.949s8-8.031 8-8.949v-2c0-0.391-0.201-0.787-0.584-1.158l-0.060 0.081zM17.589 2.702c-0.441-0.33-1.069-0.242-1.399 0.201l-3.608 4.809 2.336-5.838c0.206-0.512-0.044-1.094-0.557-1.301-0.508-0.205-1.096 0.043-1.3 0.559l-3.259 8.142c2.882-0.147 4.277-0.227 6.067-2.611 1.789-2.387 1.919-2.561 1.919-2.561 0.332-0.441 0.243-1.068-0.199-1.4z"></path>
</symbol>
<symbol id="icon-wifi" viewBox="0 0 20 20">
<title>wifi</title>
<path d="M10 14c-1.094 0-1.981 0.894-1.981 2 0 1.104 0.887 2 1.981 2s1.98-0.896 1.98-2c0-1.105-0.886-2-1.98-2zM5.8 11.758l1.4 1.414c1.546-1.562 4.054-1.562 5.601 0l1.399-1.414c-2.319-2.343-6.081-2.343-8.4 0zM3 8.928l1.4 1.414c3.092-3.123 8.106-3.123 11.199 0l1.401-1.414c-3.865-3.904-10.135-3.904-14 0zM0.199 6.1l1.4 1.414c4.639-4.686 12.161-4.686 16.801 0l1.4-1.414c-5.412-5.467-14.188-5.467-19.601 0z"></path>
</symbol>
<symbol id="icon-paperplane" viewBox="0 0 32 32">
<title>paperplane</title>
<path d="M31.543 0.16c-0.166-0.107-0.355-0.16-0.543-0.16-0.193 0-0.387 0.055-0.555 0.168l-30 20c-0.309 0.205-0.479 0.566-0.439 0.936 0.038 0.369 0.278 0.688 0.623 0.824l7.824 3.131 3.679 6.438c0.176 0.309 0.503 0.5 0.857 0.504 0.004 0 0.007 0 0.011 0 0.351 0 0.677-0.186 0.857-0.486l2.077-3.463 9.695 3.877c0.119 0.048 0.244 0.071 0.371 0.071 0.17 0 0.338-0.043 0.49-0.129 0.264-0.148 0.445-0.408 0.496-0.707l5-30c0.065-0.393-0.109-0.787-0.443-1.004zM3.136 20.777l23.175-15.451-16.85 18.037c-0.089-0.053-0.168-0.123-0.266-0.162l-6.059-2.424zM10.189 24.066c-0.002-0.004-0.005-0.006-0.007-0.010l18.943-20.275-16.149 25.162-2.787-4.877zM25.217 29.609l-8.541-3.416c-0.203-0.080-0.414-0.107-0.623-0.119l13.152-20.388-3.988 23.923z"></path>
</symbol>
<symbol id="icon-phone" viewBox="0 0 19 32">
<title>phone</title>
<path d="M1.5 32h16c0.827 0 1.5-0.673 1.5-1.5v-29c0-0.827-0.673-1.5-1.5-1.5h-16c-0.827 0-1.5 0.673-1.5 1.5v29c0 0.827 0.673 1.5 1.5 1.5zM1 1.5c0-0.276 0.224-0.5 0.5-0.5h16c0.276 0 0.5 0.224 0.5 0.5v29c0 0.276-0.224 0.5-0.5 0.5h-16c-0.276 0-0.5-0.224-0.5-0.5v-29zM2.5 27h14c0.276 0 0.5-0.224 0.5-0.5v-21c0-0.276-0.224-0.5-0.5-0.5h-14c-0.276 0-0.5 0.224-0.5 0.5v21c0 0.276 0.224 0.5 0.5 0.5zM3 6h13v20h-13v-20zM9 29c0 0.552 0.448 1 1 1s1-0.448 1-1c0-0.552-0.448-1-1-1s-1 0.448-1 1zM7.5 4h4c0.276 0 0.5-0.224 0.5-0.5s-0.224-0.5-0.5-0.5h-4c-0.276 0-0.5 0.224-0.5 0.5s0.224 0.5 0.5 0.5z"></path>
</symbol>
<symbol id="icon-clipboard-checked" viewBox="0 0 32 32">
<title>clipboard-checked</title>
<path d="M13 5v-1.002c0-1.1 0.898-1.998 2.005-1.998h0.99c1.111 0 2.005 0.895 2.005 1.998v1.002h2.004c0.551 0 0.996 0.447 0.996 0.999v1.002c0 0.556-0.446 0.999-0.996 0.999h-9.009c-0.551 0-0.996-0.447-0.996-0.999v-1.002c0-0.556 0.446-0.999 0.996-0.999h2.004zM12 4h-0.997c-1.104 0-2 0.891-2.003 2h-1.003c-1.103 0-1.997 0.89-1.997 2.004v20.993c0 1.107 0.891 2.004 1.997 2.004h15.005c1.103 0 1.997-0.89 1.997-2.004v-20.993c0-1.107-0.891-2.004-1.997-2.004h-1.003c-0.003-1.105-0.895-2-2.003-2h-0.997c-0.001-1.657-1.35-3-3.009-3h-0.982c-1.661 0-3.008 1.338-3.009 3v0 0zM22 7h1c0.545 0 1 0.449 1 1.003v20.994c0 0.564-0.448 1.003-1 1.003h-15c-0.545 0-1-0.449-1-1.003v-20.994c0-0.564 0.448-1.003 1-1.003h1c0.003 1.105 0.895 2 2.003 2h8.994c1.104 0 2-0.891 2.003-2v0 0zM15.5 5c0.276 0 0.5-0.224 0.5-0.5s-0.224-0.5-0.5-0.5c-0.276 0-0.5 0.224-0.5 0.5s0.224 0.5 0.5 0.5v0zM14.254 23.685l7.778-7.778-0.707-0.707-7.071 7.071-3.743-3.743-0.707 0.707 4.45 4.45z"></path>
</symbol>
<symbol id="icon-document-checked" viewBox="0 0 32 32">
<title>document-checked</title>
<path d="M16.022 29h-9.024c-1.107 0-1.997-0.899-1.997-2.007v-22.985c0-1.109 0.899-2.007 2.009-2.007h9.991v6.002c0 1.111 0.898 1.998 2.006 1.998h4.994v9.498c-0.77-0.321-1.614-0.498-2.5-0.498-3.59 0-6.5 2.91-6.5 6.5 0 1.289 0.375 2.49 1.022 3.5v0 0zM18 2v5.997c0 0.554 0.451 1.003 0.991 1.003h5.009l-6-7zM21.5 31c3.038 0 5.5-2.462 5.5-5.5s-2.462-5.5-5.5-5.5c-3.038 0-5.5 2.462-5.5 5.5s2.462 5.5 5.5 5.5v0zM21 28.243l-2.354-2.354 0.732-0.732 1.621 1.621 3.121-3.121 0.732 0.732-3.854 3.854z"></path>
</symbol>
<symbol id="icon-cloud-sun" viewBox="0 0 32 32">
<title>cloud-sun</title>
<path d="M7.101 15.102v0c-0.066-0.357-0.101-0.726-0.101-1.102 0-3.314 2.686-6 6-6 2.336 0 4.361 1.335 5.352 3.285 0.812-0.795 1.923-1.285 3.148-1.285 2.485 0 4.5 2.015 4.5 4.5 0 0.209-0.014 0.415-0.042 0.616v0c1.743 0.431 3.042 2.006 3.042 3.884 0 2.205-1.792 4-4.003 4h-16.994c-2.205 0-4.003-1.791-4.003-4 0-1.895 1.325-3.488 3.101-3.898zM24.953 10.219c0.031-0.235 0.047-0.475 0.047-0.719 0-3.038-2.462-5.5-5.5-5.5-2.203 0-4.103 1.295-4.981 3.165v0c-0.489-0.108-0.997-0.165-1.519-0.165-3.866 0-7 3.134-7 7 0 0.138 0.004 0.275 0.012 0.412-1.772 0.77-3.012 2.538-3.012 4.588 0 2.761 2.232 5 4.999 5h17.001c2.761 0 4.999-2.244 4.999-5 0-2.052-1.232-3.815-3.001-4.585-0.026-1.695-0.818-3.204-2.046-4.195v0 0zM23.999 9.599v0 0c-0.75-0.383-1.599-0.599-2.499-0.599-1.059 0-2.047 0.299-2.886 0.817-0.789-1.057-1.87-1.884-3.124-2.362 0.745-1.458 2.261-2.456 4.010-2.456 2.485 0 4.5 2.015 4.5 4.5 0 0.033-0 0.066-0.001 0.099zM19.5 0c-0.276 0-0.5 0.216-0.5 0.495v2.009c0 0.274 0.232 0.495 0.5 0.495 0.276 0 0.5-0.216 0.5-0.495v-2.009c0-0.274-0.232-0.495-0.5-0.495v0zM26.233 2.789c-0.195-0.195-0.506-0.201-0.704-0.003l-1.421 1.421c-0.193 0.193-0.186 0.514 0.003 0.704 0.195 0.195 0.506 0.201 0.704 0.003l1.421-1.421c0.193-0.193 0.186-0.514-0.003-0.704v0zM29.022 9.522c0-0.276-0.216-0.5-0.495-0.5h-2.009c-0.274 0-0.495 0.232-0.495 0.5 0 0.276 0.216 0.5 0.495 0.5h2.009c0.274 0 0.495-0.232 0.495-0.5v0zM12.767 2.789c-0.195 0.195-0.201 0.506-0.003 0.704l1.421 1.421c0.193 0.193 0.514 0.186 0.704-0.003 0.195-0.195 0.201-0.506 0.003-0.704l-1.421-1.421c-0.193-0.193-0.514-0.186-0.704 0.003v0z"></path>
</symbol>
<symbol id="icon-cloud-sun1" viewBox="0 0 32 32">
<title>cloud-sun1</title>
<path d="M24.953 10.219v0c1.228 0.992 2.020 2.501 2.046 4.195 1.768 0.771 3.001 2.534 3.001 4.585 0 2.756-2.238 5-4.999 5h-17.001c-2.767 0-4.999-2.239-4.999-5 0-2.051 1.24-3.818 3.012-4.588-0.008-0.136-0.012-0.273-0.012-0.412 0-3.866 3.134-7 7-7 0.522 0 1.030 0.057 1.519 0.165v0c0.878-1.87 2.778-3.165 4.981-3.165 3.038 0 5.5 2.462 5.5 5.5 0 0.244-0.016 0.484-0.047 0.719zM23.999 9.599c0.001-0.033 0.001-0.066 0.001-0.099 0-2.485-2.015-4.5-4.5-4.5-1.749 0-3.265 0.998-4.010 2.456 1.253 0.477 2.334 1.304 3.124 2.362 0.839-0.518 1.828-0.817 2.886-0.817 0.9 0 1.749 0.216 2.499 0.599v0zM19.5 0c-0.276 0-0.5 0.216-0.5 0.495v2.009c0 0.274 0.232 0.495 0.5 0.495 0.276 0 0.5-0.216 0.5-0.495v-2.009c0-0.274-0.232-0.495-0.5-0.495v0zM26.233 2.789c-0.195-0.195-0.506-0.201-0.704-0.003l-1.421 1.421c-0.193 0.193-0.186 0.514 0.003 0.704 0.195 0.195 0.506 0.201 0.704 0.003l1.421-1.421c0.193-0.193 0.186-0.514-0.003-0.704v0zM29.022 9.522c0-0.276-0.216-0.5-0.495-0.5h-2.009c-0.274 0-0.495 0.232-0.495 0.5 0 0.276 0.216 0.5 0.495 0.5h2.009c0.274 0 0.495-0.232 0.495-0.5v0zM12.767 2.789c-0.195 0.195-0.201 0.506-0.003 0.704l1.421 1.421c0.193 0.193 0.514 0.186 0.704-0.003 0.195-0.195 0.201-0.506 0.003-0.704l-1.421-1.421c-0.193-0.193-0.514-0.186-0.704 0.003v0z"></path>
</symbol>
<symbol id="icon-rainbow" viewBox="0 0 32 32">
<title>rainbow</title>
<path d="M16 11c8.634 0 15.67 6.838 15.989 15.394 0.007 0.034 0.011 0.070 0.011 0.106 0 0.276-0.224 0.5-0.5 0.5s-0.5-0.224-0.5-0.5c-0.272-8.053-6.883-14.5-15-14.5s-14.728 6.447-14.992 14.5c-0.008 0.276-0.232 0.5-0.508 0.5s-0.5-0.224-0.5-0.5c0-0.036 0.004-0.072 0.011-0.106 0.319-8.556 7.355-15.394 15.989-15.394v0zM16 13c7.526 0 13.665 5.938 13.987 13.385 0.009 0.037 0.013 0.075 0.013 0.115 0 0.276-0.224 0.5-0.5 0.5s-0.5-0.224-0.5-0.5c-0.272-6.948-5.988-12.5-13-12.5s-12.728 5.552-12.991 12.5c-0.009 0.276-0.233 0.5-0.509 0.5s-0.5-0.224-0.5-0.5c0-0.040 0.005-0.078 0.013-0.115 0.322-7.447 6.461-13.385 13.987-13.385v0zM16 15c6.417 0 11.658 5.037 11.984 11.374 0.010 0.040 0.016 0.083 0.016 0.126 0 0.276-0.224 0.5-0.5 0.5s-0.5-0.224-0.5-0.5c-0.273-5.843-5.092-10.5-11-10.5s-10.727 4.657-10.989 10.5c-0.011 0.276-0.235 0.5-0.511 0.5s-0.5-0.224-0.5-0.5c0-0.044 0.006-0.086 0.016-0.126 0.326-6.336 5.567-11.374 11.984-11.374v0zM0.503 28c-0.278 0-0.503 0.232-0.503 0.5 0 0.276 0.221 0.5 0.503 0.5h30.995c0.278 0 0.503-0.232 0.503-0.5 0-0.276-0.221-0.5-0.503-0.5h-30.995zM28 12.5c0-3.038-2.462-5.5-5.5-5.5-2.166 0-4.039 1.252-4.936 3.071 3.863 0.352 7.353 1.997 10.033 4.499 0.26-0.639 0.403-1.338 0.403-2.070v0zM22 3.495v2.009c0 0.274 0.232 0.495 0.5 0.495 0.276 0 0.5-0.216 0.5-0.495v-2.009c0-0.274-0.232-0.495-0.5-0.495-0.276 0-0.5 0.216-0.5 0.495v0zM28.534 5.788l-1.421 1.421c-0.193 0.193-0.186 0.514 0.003 0.704 0.195 0.195 0.506 0.201 0.704 0.003l1.421-1.421c0.193-0.193 0.186-0.514-0.003-0.704-0.195-0.195-0.506-0.201-0.704-0.003v0zM31.534 12.029h-2.009c-0.274 0-0.495 0.232-0.495 0.5 0 0.276 0.216 0.5 0.495 0.5h2.009c0.274 0 0.495-0.232 0.495-0.5 0-0.276-0.216-0.5-0.495-0.5v0zM15.759 6.495l1.421 1.421c0.193 0.193 0.514 0.186 0.704-0.003 0.195-0.195 0.201-0.506 0.003-0.704l-1.421-1.421c-0.193-0.193-0.514-0.186-0.704 0.003-0.195 0.195-0.201 0.506-0.003 0.704v0z"></path>
</symbol>
<symbol id="icon-compass" viewBox="0 0 32 32">
<title>compass</title>
<path d="M16.5 29v0c-6.904 0-12.5-5.596-12.5-12.5s5.596-12.5 12.5-12.5c6.904 0 12.5 5.596 12.5 12.5s-5.596 12.5-12.5 12.5zM16.5 28c6.351 0 11.5-5.149 11.5-11.5s-5.149-11.5-11.5-11.5c-6.351 0-11.5 5.149-11.5 11.5s5.149 11.5 11.5 11.5v0zM16.5 27c5.799 0 10.5-4.701 10.5-10.5s-4.701-10.5-10.5-10.5c-5.799 0-10.5 4.701-10.5 10.5s4.701 10.5 10.5 10.5v0zM18.268 18.268c-1.768 1.768-8.485 4.95-8.485 4.95s3.182-6.718 4.95-8.485c1.768-1.768 8.485-4.95 8.485-4.95s-3.182 6.717-4.95 8.485v0zM16.5 7v0c0.268 0 0.5 0.22 0.5 0.49v3.019c0 0.275-0.224 0.49-0.5 0.49-0.268 0-0.5-0.22-0.5-0.49v-3.019c0-0.275 0.224-0.49 0.5-0.49zM26.043 16.543v0c0 0.268-0.22 0.5-0.49 0.5h-3.019c-0.275 0-0.49-0.224-0.49-0.5 0-0.268 0.22-0.5 0.49-0.5h3.019c0.275 0 0.49 0.224 0.49 0.5zM16.5 26.087v0c-0.268 0-0.5-0.22-0.5-0.49v-3.019c0-0.275 0.224-0.49 0.5-0.49 0.268 0 0.5 0.22 0.5 0.49v3.019c0 0.275-0.224 0.49-0.5 0.49zM6.957 16.543v0c0-0.268 0.22-0.5 0.49-0.5h3.019c0.275 0 0.49 0.224 0.49 0.5 0 0.268-0.22 0.5-0.49 0.5h-3.019c-0.275 0-0.49-0.224-0.49-0.5zM15.425 15.5c-1.061 1.061-3.465 5.586-3.465 5.586s4.526-2.404 5.586-3.465l-2.121-2.121z"></path>
</symbol>
<symbol id="icon-compass1" viewBox="0 0 32 32">
<title>compass1</title>
<path d="M16 29v0c-7.18 0-13-5.82-13-13s5.82-13 13-13c7.18 0 13 5.82 13 13s-5.82 13-13 13zM16 28c6.627 0 12-5.373 12-12s-5.373-12-12-12c-6.627 0-12 5.373-12 12s5.373 12 12 12v0zM16 27c6.075 0 11-4.925 11-11s-4.925-11-11-11c-6.075 0-11 4.925-11 11s4.925 11 11 11v0zM18.121 18.121c-1.768 1.768-9.192 4.95-9.192 4.95s3.182-7.425 4.95-9.192c1.768-1.768 9.192-4.95 9.192-4.95s-3.182 7.425-4.95 9.192v0zM14.62 14.6c-1.414 1.414-3.606 6.435-3.606 6.435s5.020-2.192 6.435-3.606l-2.828-2.828z"></path>
</symbol>
<symbol id="icon-phone1" viewBox="0 0 48 48">
<title>phone1</title>
<path d="M24 0c-8.55 0-17.12 1.53-20.23 4.58-2.58 2.53-3.44 7-3.73 9.83 0 0-0.040 0.28-0.040 0.4 0 1.11 0.9 2 2 2 0.13 0 4.94-0.39 7.84-0.63 0.070-0.010 0.14-0.020 0.21-0.040 1.080-0.030 1.95-0.91 1.95-2l0.010-3.94c0-1.22 0.99-2.2 2.21-2.2h19.559c1.221 0 2.211 0.98 2.211 2.2l0.010 3.94c0 1.090 0.87 1.97 1.95 2 0.069 0.020 0.14 0.030 0.21 0.040 2.9 0.24 7.71 0.63 7.84 0.63 1.1 0 2-0.89 2-2 0-0.12-0.040-0.4-0.040-0.4-0.29-2.83-1.149-7.3-3.729-9.83-3.111-3.050-11.681-4.58-20.231-4.58zM24 26c-2.21 0-4 1.79-4 4s1.79 4 4 4 4-1.79 4-4-1.79-4-4-4zM21 17v-2.5c0-1.38-1.12-2.5-2.5-2.5s-2.5 1.12-2.5 2.5v2.5l-13.49 14.41c-0.93 0.91-1.51 2.18-1.51 3.58v4.010c0 2.21 1.79 4 4 4h1v2.5c-0 1.38 1.12 2.5 2.5 2.5s2.5-1.12 2.5-2.5l-0-2.5h26v2.5c0 1.38 1.12 2.5 2.5 2.5s2.5-1.12 2.5-2.5v-2.5h1c2.21 0 4-1.79 4-4v-4.010c0-1.4-0.58-2.67-1.51-3.58l-13.49-14.41v-2.5c0-1.38-1.12-2.5-2.5-2.5s-2.5 1.12-2.5 2.5v2.5h-6zM24 22c4.42 0 8 3.58 8 8s-3.58 8-8 8-8-3.58-8-8 3.58-8 8-8z"></path>
</symbol>
<symbol id="icon-special" viewBox="0 0 24 28">
<title>special</title>
<path d="M22.469 12.703c0.328 0.344 0.5 0.812 0.453 1.281l-0.688 8.609c-0.078 0.875-0.797 1.531-1.656 1.531-0.047 0-0.094 0-0.141-0.016-0.922-0.063-1.594-0.875-1.531-1.781l0.547-6.703-2.234 0.125c0.547 1.125 0.859 2.406 0.859 3.75 0 2.25-0.875 4.297-2.312 5.812l-2.141-2.141c0.875-0.969 1.422-2.266 1.422-3.672 0-3.031-2.453-5.484-5.469-5.484-1.422 0-2.703 0.547-3.687 1.437l-2.141-2.156c1.203-1.141 2.734-1.922 4.438-2.203l4.125-4.688-2.328-1.359-2.828 2.516c-0.688 0.625-1.734 0.562-2.344-0.125s-0.547-1.734 0.125-2.344l3.734-3.328c0.531-0.484 1.313-0.562 1.937-0.187 7.609 4.422 7.625 4.422 7.625 4.422 0.406 0.234 0.641 0.641 0.75 1.062 0.156 0.609 0.047 1.297-0.406 1.828l-3.203 3.625 5.797-0.313c0.484-0.031 0.953 0.141 1.297 0.5zM19.375 5.563c-1.531 0-2.781-1.234-2.781-2.781 0-1.531 1.25-2.781 2.781-2.781 1.547 0 2.797 1.25 2.797 2.781 0 1.547-1.25 2.781-2.797 2.781zM9.578 24.969c1.125 0 2.188-0.359 3.063-0.953l2.172 2.172c-1.437 1.141-3.266 1.813-5.234 1.813-4.703 0-8.516-3.813-8.516-8.5 0-1.984 0.672-3.797 1.813-5.25l2.172 2.172c-0.594 0.875-0.938 1.937-0.938 3.078 0 3.016 2.453 5.469 5.469 5.469z"></path>
</symbol>
<symbol id="icon-paper-plane" viewBox="0 0 28 28">
<title>paper-plane</title>
<path d="M27.563 0.172c0.328 0.234 0.484 0.609 0.422 1l-4 24c-0.047 0.297-0.234 0.547-0.5 0.703-0.141 0.078-0.313 0.125-0.484 0.125-0.125 0-0.25-0.031-0.375-0.078l-7.078-2.891-3.781 4.609c-0.187 0.234-0.469 0.359-0.766 0.359-0.109 0-0.234-0.016-0.344-0.063-0.391-0.141-0.656-0.516-0.656-0.938v-5.453l13.5-16.547-16.703 14.453-6.172-2.531c-0.359-0.141-0.594-0.469-0.625-0.859-0.016-0.375 0.172-0.734 0.5-0.922l26-15c0.156-0.094 0.328-0.141 0.5-0.141 0.203 0 0.406 0.063 0.562 0.172z"></path>
</symbol>
<symbol id="icon-home" viewBox="0 0 32 32">
<title>home</title>
<path d="M32 18.451l-16-12.42-16 12.42v-5.064l16-12.42 16 12.42zM28 18v12h-8v-8h-8v8h-8v-12l12-9z"></path>
</symbol>
<symbol id="icon-phone11" viewBox="0 0 32 32">
<title>phone11</title>
<path d="M22 20c-2 2-2 4-4 4s-4-2-6-4-4-4-4-6 2-2 4-4-4-8-6-8-6 6-6 6c0 4 4.109 12.109 8 16s12 8 16 8c0 0 6-4 6-6s-6-8-8-6z"></path>
</symbol>
<symbol id="icon-airplane" viewBox="0 0 32 32">
<title>airplane</title>
<path d="M24 19.999l-5.713-5.713 13.713-10.286-4-4-17.141 6.858-5.397-5.397c-1.556-1.556-3.728-1.928-4.828-0.828s-0.727 3.273 0.828 4.828l5.396 5.396-6.858 17.143 4 4 10.287-13.715 5.713 5.713v7.999h4l2-6 6-2v-4l-7.999 0z"></path>
</symbol>
<symbol id="icon-pin" viewBox="0 0 20 20">
<title>pin</title>
<path d="M4.774 15.287l-2.105 3.25 0.224 1.063 1.060-0.227 2.104-3.248c-0.224-0.12-0.446-0.248-0.661-0.39-0.218-0.141-0.426-0.292-0.622-0.448zM13.686 14.152c0.014-0.029 0.023-0.061 0.036-0.092 0.053-0.117 0.1-0.234 0.138-0.357 0.006-0.022 0.009-0.044 0.016-0.064 0.039-0.136 0.072-0.27 0.098-0.408 0-0.007 0-0.012 0-0.021 0.195-1.169-0.145-2.473-0.923-3.651l1.11-1.714c1.279 0.163 2.385-0.159 2.917-0.982 0.923-1.423-0.2-3.792-2.505-5.293-2.307-1.502-4.923-1.565-5.844-0.144-0.534 0.824-0.378 1.967 0.293 3.073l-1.112 1.714c-1.389-0.233-2.716-0.016-3.703 0.64-0.006 0.002-0.013 0.004-0.017 0.008-0.115 0.078-0.227 0.164-0.332 0.254-0.017 0.014-0.037 0.027-0.051 0.041-0.098 0.084-0.186 0.178-0.271 0.272-0.020 0.024-0.048 0.045-0.067 0.070-0.106 0.121-0.204 0.249-0.29 0.385-1.384 2.133-0.203 5.361 2.633 7.209 2.838 1.848 6.26 1.614 7.641-0.519 0.087-0.135 0.167-0.276 0.233-0.421zM12.871 4.194c-0.887-0.577-1.32-1.487-0.965-2.036 0.354-0.547 1.361-0.522 2.246 0.055 0.889 0.577 1.318 1.489 0.965 2.036s-1.358 0.522-2.246-0.055z"></path>
</symbol>
<symbol id="icon-info-with-circle" viewBox="0 0 20 20">
<title>info-with-circle</title>
<path d="M10 0.4c-5.303 0-9.601 4.298-9.601 9.6 0 5.303 4.298 9.601 9.601 9.601 5.301 0 9.6-4.298 9.6-9.601s-4.299-9.6-9.6-9.6zM10.896 3.866c0.936 0 1.211 0.543 1.211 1.164 0 0.775-0.62 1.492-1.679 1.492-0.886 0-1.308-0.445-1.282-1.182 0-0.621 0.519-1.474 1.75-1.474zM8.498 15.75c-0.64 0-1.107-0.389-0.66-2.094l0.733-3.025c0.127-0.484 0.148-0.678 0-0.678-0.191 0-1.022 0.334-1.512 0.664l-0.319-0.523c1.555-1.299 3.343-2.061 4.108-2.061 0.64 0 0.746 0.756 0.427 1.92l-0.84 3.18c-0.149 0.562-0.085 0.756 0.064 0.756 0.192 0 0.82-0.232 1.438-0.719l0.362 0.486c-1.513 1.512-3.162 2.094-3.801 2.094z"></path>
</symbol>
</defs>
</svg>
