<svg aria-hidden="true" style="position: absolute; width: 0; height: 0; overflow: hidden;" version="1.1" xmlns="http://www.w3.org/2000/svg" xmlns:xlink="http://www.w3.org/1999/xlink">
<defs>
<symbol id="icon-phone" viewBox="0 0 48 48">
<title>phone</title>
<path d="M24 0c-8.55 0-17.12 1.53-20.23 4.58-2.58 2.53-3.44 7-3.73 9.83 0 0-0.040 0.28-0.040 0.4 0 1.11 0.9 2 2 2 0.13 0 4.94-0.39 7.84-0.63 0.070-0.010 0.14-0.020 0.21-0.040 1.080-0.030 1.95-0.91 1.95-2l0.010-3.94c0-1.22 0.99-2.2 2.21-2.2h19.559c1.221 0 2.211 0.98 2.211 2.2l0.010 3.94c0 1.090 0.87 1.97 1.95 2 0.069 0.020 0.14 0.030 0.21 0.040 2.9 0.24 7.71 0.63 7.84 0.63 1.1 0 2-0.89 2-2 0-0.12-0.040-0.4-0.040-0.4-0.29-2.83-1.149-7.3-3.729-9.83-3.111-3.050-11.681-4.58-20.231-4.58zM24 26c-2.21 0-4 1.79-4 4s1.79 4 4 4 4-1.79 4-4-1.79-4-4-4zM21 17v-2.5c0-1.38-1.12-2.5-2.5-2.5s-2.5 1.12-2.5 2.5v2.5l-13.49 14.41c-0.93 0.91-1.51 2.18-1.51 3.58v4.010c0 2.21 1.79 4 4 4h1v2.5c-0 1.38 1.12 2.5 2.5 2.5s2.5-1.12 2.5-2.5l-0-2.5h26v2.5c0 1.38 1.12 2.5 2.5 2.5s2.5-1.12 2.5-2.5v-2.5h1c2.21 0 4-1.79 4-4v-4.010c0-1.4-0.58-2.67-1.51-3.58l-13.49-14.41v-2.5c0-1.38-1.12-2.5-2.5-2.5s-2.5 1.12-2.5 2.5v2.5h-6zM24 22c4.42 0 8 3.58 8 8s-3.58 8-8 8-8-3.58-8-8 3.58-8 8-8z"></path>
</symbol>
<symbol id="icon-paper-plane" viewBox="0 0 28 28">
<title>paper-plane</title>
<path d="M27.563 0.172c0.328 0.234 0.484 0.609 0.422 1l-4 24c-0.047 0.297-0.234 0.547-0.5 0.703-0.141 0.078-0.313 0.125-0.484 0.125-0.125 0-0.25-0.031-0.375-0.078l-7.078-2.891-3.781 4.609c-0.187 0.234-0.469 0.359-0.766 0.359-0.109 0-0.234-0.016-0.344-0.063-0.391-0.141-0.656-0.516-0.656-0.938v-5.453l13.5-16.547-16.703 14.453-6.172-2.531c-0.359-0.141-0.594-0.469-0.625-0.859-0.016-0.375 0.172-0.734 0.5-0.922l26-15c0.156-0.094 0.328-0.141 0.5-0.141 0.203 0 0.406 0.063 0.562 0.172z"></path>
</symbol>
<symbol id="icon-document-checked" viewBox="0 0 32 32">
<title>document-checked</title>
<path d="M16.022 29h-9.024c-1.107 0-1.997-0.899-1.997-2.007v-22.985c0-1.109 0.899-2.007 2.009-2.007h9.991v6.002c0 1.111 0.898 1.998 2.006 1.998h4.994v9.498c-0.77-0.321-1.614-0.498-2.5-0.498-3.59 0-6.5 2.91-6.5 6.5 0 1.289 0.375 2.49 1.022 3.5v0 0zM18 2v5.997c0 0.554 0.451 1.003 0.991 1.003h5.009l-6-7zM21.5 31c3.038 0 5.5-2.462 5.5-5.5s-2.462-5.5-5.5-5.5c-3.038 0-5.5 2.462-5.5 5.5s2.462 5.5 5.5 5.5v0zM21 28.243l-2.354-2.354 0.732-0.732 1.621 1.621 3.121-3.121 0.732 0.732-3.854 3.854z"></path>
</symbol>
<symbol id="icon-cloud-sun" viewBox="0 0 32 32">
<title>cloud-sun</title>
<path d="M7.101 15.102v0c-0.066-0.357-0.101-0.726-0.101-1.102 0-3.314 2.686-6 6-6 2.336 0 4.361 1.335 5.352 3.285 0.812-0.795 1.923-1.285 3.148-1.285 2.485 0 4.5 2.015 4.5 4.5 0 0.209-0.014 0.415-0.042 0.616v0c1.743 0.431 3.042 2.006 3.042 3.884 0 2.205-1.792 4-4.003 4h-16.994c-2.205 0-4.003-1.791-4.003-4 0-1.895 1.325-3.488 3.101-3.898zM24.953 10.219c0.031-0.235 0.047-0.475 0.047-0.719 0-3.038-2.462-5.5-5.5-5.5-2.203 0-4.103 1.295-4.981 3.165v0c-0.489-0.108-0.997-0.165-1.519-0.165-3.866 0-7 3.134-7 7 0 0.138 0.004 0.275 0.012 0.412-1.772 0.77-3.012 2.538-3.012 4.588 0 2.761 2.232 5 4.999 5h17.001c2.761 0 4.999-2.244 4.999-5 0-2.052-1.232-3.815-3.001-4.585-0.026-1.695-0.818-3.204-2.046-4.195v0 0zM23.999 9.599v0 0c-0.75-0.383-1.599-0.599-2.499-0.599-1.059 0-2.047 0.299-2.886 0.817-0.789-1.057-1.87-1.884-3.124-2.362 0.745-1.458 2.261-2.456 4.010-2.456 2.485 0 4.5 2.015 4.5 4.5 0 0.033-0 0.066-0.001 0.099zM19.5 0c-0.276 0-0.5 0.216-0.5 0.495v2.009c0 0.274 0.232 0.495 0.5 0.495 0.276 0 0.5-0.216 0.5-0.495v-2.009c0-0.274-0.232-0.495-0.5-0.495v0zM26.233 2.789c-0.195-0.195-0.506-0.201-0.704-0.003l-1.421 1.421c-0.193 0.193-0.186 0.514 0.003 0.704 0.195 0.195 0.506 0.201 0.704 0.003l1.421-1.421c0.193-0.193 0.186-0.514-0.003-0.704v0zM29.022 9.522c0-0.276-0.216-0.5-0.495-0.5h-2.009c-0.274 0-0.495 0.232-0.495 0.5 0 0.276 0.216 0.5 0.495 0.5h2.009c0.274 0 0.495-0.232 0.495-0.5v0zM12.767 2.789c-0.195 0.195-0.201 0.506-0.003 0.704l1.421 1.421c0.193 0.193 0.514 0.186 0.704-0.003 0.195-0.195 0.201-0.506 0.003-0.704l-1.421-1.421c-0.193-0.193-0.514-0.186-0.704 0.003v0z"></path>
</symbol>
<symbol id="icon-cloud-sun1" viewBox="0 0 32 32">
<title>cloud-sun1</title>
<path d="M24.953 10.219v0c1.228 0.992 2.020 2.501 2.046 4.195 1.768 0.771 3.001 2.534 3.001 4.585 0 2.756-2.238 5-4.999 5h-17.001c-2.767 0-4.999-2.239-4.999-5 0-2.051 1.24-3.818 3.012-4.588-0.008-0.136-0.012-0.273-0.012-0.412 0-3.866 3.134-7 7-7 0.522 0 1.030 0.057 1.519 0.165v0c0.878-1.87 2.778-3.165 4.981-3.165 3.038 0 5.5 2.462 5.5 5.5 0 0.244-0.016 0.484-0.047 0.719zM23.999 9.599c0.001-0.033 0.001-0.066 0.001-0.099 0-2.485-2.015-4.5-4.5-4.5-1.749 0-3.265 0.998-4.010 2.456 1.253 0.477 2.334 1.304 3.124 2.362 0.839-0.518 1.828-0.817 2.886-0.817 0.9 0 1.749 0.216 2.499 0.599v0zM19.5 0c-0.276 0-0.5 0.216-0.5 0.495v2.009c0 0.274 0.232 0.495 0.5 0.495 0.276 0 0.5-0.216 0.5-0.495v-2.009c0-0.274-0.232-0.495-0.5-0.495v0zM26.233 2.789c-0.195-0.195-0.506-0.201-0.704-0.003l-1.421 1.421c-0.193 0.193-0.186 0.514 0.003 0.704 0.195 0.195 0.506 0.201 0.704 0.003l1.421-1.421c0.193-0.193 0.186-0.514-0.003-0.704v0zM29.022 9.522c0-0.276-0.216-0.5-0.495-0.5h-2.009c-0.274 0-0.495 0.232-0.495 0.5 0 0.276 0.216 0.5 0.495 0.5h2.009c0.274 0 0.495-0.232 0.495-0.5v0zM12.767 2.789c-0.195 0.195-0.201 0.506-0.003 0.704l1.421 1.421c0.193 0.193 0.514 0.186 0.704-0.003 0.195-0.195 0.201-0.506 0.003-0.704l-1.421-1.421c-0.193-0.193-0.514-0.186-0.704 0.003v0z"></path>
</symbol>
<symbol id="icon-rainbow" viewBox="0 0 32 32">
<title>rainbow</title>
<path d="M16 11c8.634 0 15.67 6.838 15.989 15.394 0.007 0.034 0.011 0.070 0.011 0.106 0 0.276-0.224 0.5-0.5 0.5s-0.5-0.224-0.5-0.5c-0.272-8.053-6.883-14.5-15-14.5s-14.728 6.447-14.992 14.5c-0.008 0.276-0.232 0.5-0.508 0.5s-0.5-0.224-0.5-0.5c0-0.036 0.004-0.072 0.011-0.106 0.319-8.556 7.355-15.394 15.989-15.394v0zM16 13c7.526 0 13.665 5.938 13.987 13.385 0.009 0.037 0.013 0.075 0.013 0.115 0 0.276-0.224 0.5-0.5 0.5s-0.5-0.224-0.5-0.5c-0.272-6.948-5.988-12.5-13-12.5s-12.728 5.552-12.991 12.5c-0.009 0.276-0.233 0.5-0.509 0.5s-0.5-0.224-0.5-0.5c0-0.040 0.005-0.078 0.013-0.115 0.322-7.447 6.461-13.385 13.987-13.385v0zM16 15c6.417 0 11.658 5.037 11.984 11.374 0.010 0.040 0.016 0.083 0.016 0.126 0 0.276-0.224 0.5-0.5 0.5s-0.5-0.224-0.5-0.5c-0.273-5.843-5.092-10.5-11-10.5s-10.727 4.657-10.989 10.5c-0.011 0.276-0.235 0.5-0.511 0.5s-0.5-0.224-0.5-0.5c0-0.044 0.006-0.086 0.016-0.126 0.326-6.336 5.567-11.374 11.984-11.374v0zM0.503 28c-0.278 0-0.503 0.232-0.503 0.5 0 0.276 0.221 0.5 0.503 0.5h30.995c0.278 0 0.503-0.232 0.503-0.5 0-0.276-0.221-0.5-0.503-0.5h-30.995zM28 12.5c0-3.038-2.462-5.5-5.5-5.5-2.166 0-4.039 1.252-4.936 3.071 3.863 0.352 7.353 1.997 10.033 4.499 0.26-0.639 0.403-1.338 0.403-2.070v0zM22 3.495v2.009c0 0.274 0.232 0.495 0.5 0.495 0.276 0 0.5-0.216 0.5-0.495v-2.009c0-0.274-0.232-0.495-0.5-0.495-0.276 0-0.5 0.216-0.5 0.495v0zM28.534 5.788l-1.421 1.421c-0.193 0.193-0.186 0.514 0.003 0.704 0.195 0.195 0.506 0.201 0.704 0.003l1.421-1.421c0.193-0.193 0.186-0.514-0.003-0.704-0.195-0.195-0.506-0.201-0.704-0.003v0zM31.534 12.029h-2.009c-0.274 0-0.495 0.232-0.495 0.5 0 0.276 0.216 0.5 0.495 0.5h2.009c0.274 0 0.495-0.232 0.495-0.5 0-0.276-0.216-0.5-0.495-0.5v0zM15.759 6.495l1.421 1.421c0.193 0.193 0.514 0.186 0.704-0.003 0.195-0.195 0.201-0.506 0.003-0.704l-1.421-1.421c-0.193-0.193-0.514-0.186-0.704 0.003-0.195 0.195-0.201 0.506-0.003 0.704v0z"></path>
</symbol>
<symbol id="icon-compass" viewBox="0 0 32 32">
<title>compass</title>
<path d="M16.5 29v0c-6.904 0-12.5-5.596-12.5-12.5s5.596-12.5 12.5-12.5c6.904 0 12.5 5.596 12.5 12.5s-5.596 12.5-12.5 12.5zM16.5 28c6.351 0 11.5-5.149 11.5-11.5s-5.149-11.5-11.5-11.5c-6.351 0-11.5 5.149-11.5 11.5s5.149 11.5 11.5 11.5v0zM16.5 27c5.799 0 10.5-4.701 10.5-10.5s-4.701-10.5-10.5-10.5c-5.799 0-10.5 4.701-10.5 10.5s4.701 10.5 10.5 10.5v0zM18.268 18.268c-1.768 1.768-8.485 4.95-8.485 4.95s3.182-6.718 4.95-8.485c1.768-1.768 8.485-4.95 8.485-4.95s-3.182 6.717-4.95 8.485v0zM16.5 7v0c0.268 0 0.5 0.22 0.5 0.49v3.019c0 0.275-0.224 0.49-0.5 0.49-0.268 0-0.5-0.22-0.5-0.49v-3.019c0-0.275 0.224-0.49 0.5-0.49zM26.043 16.543v0c0 0.268-0.22 0.5-0.49 0.5h-3.019c-0.275 0-0.49-0.224-0.49-0.5 0-0.268 0.22-0.5 0.49-0.5h3.019c0.275 0 0.49 0.224 0.49 0.5zM16.5 26.087v0c-0.268 0-0.5-0.22-0.5-0.49v-3.019c0-0.275 0.224-0.49 0.5-0.49 0.268 0 0.5 0.22 0.5 0.49v3.019c0 0.275-0.224 0.49-0.5 0.49zM6.957 16.543v0c0-0.268 0.22-0.5 0.49-0.5h3.019c0.275 0 0.49 0.224 0.49 0.5 0 0.268-0.22 0.5-0.49 0.5h-3.019c-0.275 0-0.49-0.224-0.49-0.5zM15.425 15.5c-1.061 1.061-3.465 5.586-3.465 5.586s4.526-2.404 5.586-3.465l-2.121-2.121z"></path>
</symbol>
<symbol id="icon-compass1" viewBox="0 0 32 32">
<title>compass1</title>
<path d="M16 29v0c-7.18 0-13-5.82-13-13s5.82-13 13-13c7.18 0 13 5.82 13 13s-5.82 13-13 13zM16 28c6.627 0 12-5.373 12-12s-5.373-12-12-12c-6.627 0-12 5.373-12 12s5.373 12 12 12v0zM16 27c6.075 0 11-4.925 11-11s-4.925-11-11-11c-6.075 0-11 4.925-11 11s4.925 11 11 11v0zM18.121 18.121c-1.768 1.768-9.192 4.95-9.192 4.95s3.182-7.425 4.95-9.192c1.768-1.768 9.192-4.95 9.192-4.95s-3.182 7.425-4.95 9.192v0zM14.62 14.6c-1.414 1.414-3.606 6.435-3.606 6.435s5.020-2.192 6.435-3.606l-2.828-2.828z"></path>
</symbol>
<symbol id="icon-home" viewBox="0 0 32 32">
<title>home</title>
<path d="M32 18.451l-16-12.42-16 12.42v-5.064l16-12.42 16 12.42zM28 18v12h-8v-8h-8v8h-8v-12l12-9z"></path>
</symbol>
<symbol id="icon-phone1" viewBox="0 0 32 32">
<title>phone1</title>
<path d="M22 20c-2 2-2 4-4 4s-4-2-6-4-4-4-4-6 2-2 4-4-4-8-6-8-6 6-6 6c0 4 4.109 12.109 8 16s12 8 16 8c0 0 6-4 6-6s-6-8-8-6z"></path>
</symbol>
<symbol id="icon-airplane" viewBox="0 0 32 32">
<title>airplane</title>
<path d="M24 19.999l-5.713-5.713 13.713-10.286-4-4-17.141 6.858-5.397-5.397c-1.556-1.556-3.728-1.928-4.828-0.828s-0.727 3.273 0.828 4.828l5.396 5.396-6.858 17.143 4 4 10.287-13.715 5.713 5.713v7.999h4l2-6 6-2v-4l-7.999 0z"></path>
</symbol>
</defs>
</svg>
